<?xml version="1.0" encoding="UTF-8" standalone="no"?>
<!-- Generator: Adobe Illustrator 25.2.3, SVG Export Plug-In . SVG Version: 6.00 Build 0)  -->

<svg
   version="1.1"
   id="Livello_1"
   x="0px"
   y="0px"
   viewBox="0 0 595.28 841.89"
   style="enable-background:new 0 0 595.28 841.89;"
   xml:space="preserve"
   sodipodi:docname="sistemaperto.svg"
   inkscape:version="1.1.1 (3bf5ae0d25, 2021-09-20)"
   xmlns:inkscape="http://www.inkscape.org/namespaces/inkscape"
   xmlns:sodipodi="http://sodipodi.sourceforge.net/DTD/sodipodi-0.dtd"
   xmlns="http://www.w3.org/2000/svg"
   xmlns:svg="http://www.w3.org/2000/svg"><defs
   id="defs1342" /><sodipodi:namedview
   id="namedview1340"
   pagecolor="#ffffff"
   bordercolor="#666666"
   borderopacity="1.0"
   inkscape:pageshadow="2"
   inkscape:pageopacity="0.0"
   inkscape:pagecheckerboard="0"
   showgrid="false"
   inkscape:zoom="1.5143988"
   inkscape:cx="288.56337"
   inkscape:cy="206.68268"
   inkscape:window-width="1441"
   inkscape:window-height="948"
   inkscape:window-x="46"
   inkscape:window-y="19"
   inkscape:window-maximized="0"
   inkscape:current-layer="Livello_1" />
<style
   type="text/css"
   id="style1173">
	.st0{fill:none;stroke:#000000;stroke-miterlimit:10;}
	.st1{fill:none;stroke:#000000;stroke-miterlimit:10;stroke-dasharray:4;}
	.st2{fill:none;stroke:#000000;stroke-miterlimit:10;stroke-dasharray:2;}
	.st3{fill:none;stroke:#E30613;stroke-miterlimit:10;}
	.st4{fill:none;stroke:#000000;stroke-width:0.5;stroke-miterlimit:10;}
</style>
<ellipse
   class="st0"
   cx="178.97"
   cy="152.15"
   rx="40.17"
   ry="16.68"
   id="ellipse1175" />
<path
   class="st0"
   d="M219.14,258.89c0,9.21-17.99,16.68-40.17,16.68s-40.17-7.47-40.17-16.68"
   id="path1177" />
<line
   class="st0"
   x1="138.79"
   y1="199.13"
   x2="138.79"
   y2="152.15"
   id="line1179" />
<path
   class="st0"
   d="M138.79,258.89v-44.51"
   id="path1181" />
<path
   class="st1"
   d="M219.14,258.89c0-9.21-17.99-16.68-40.17-16.68s-40.17,7.47-40.17,16.68"
   id="path1183" />
<path
   class="st0"
   d="M219.14,152.15v106.73"
   id="path1185" />
<path
   class="st1"
   d="M148.78,206.58c-0.29,0.06-0.58,0.07-0.88,0.03"
   id="path1187" />
<path
   class="st0"
   d="M145.29,193.51c0.26-0.14,0.53-0.25,0.82-0.31c2.33-0.46,4.81,2.15,5.55,5.85s-0.55,7.07-2.88,7.53"
   id="path1189" />
<path
   class="st1"
   d="M147.46,206.53c-1.88-0.51-3.63-2.8-4.23-5.79c-0.65-3.23,0.26-6.22,2.05-7.23"
   id="path1191" />
<path
   class="st1"
   d="M147.91,206.62c-0.15-0.02-0.3-0.05-0.45-0.09"
   id="path1193" />
<ellipse
   transform="matrix(0.9806 -0.1959 0.1959 0.9806 -40.8734 27.8865)"
   class="st0"
   cx="120.51"
   cy="220.54"
   rx="4.3"
   ry="6.82"
   id="ellipse1195" />
<line
   class="st0"
   x1="138.24"
   y1="199.13"
   x2="117.89"
   y2="214.48"
   id="line1197" />
<line
   class="st0"
   x1="146.11"
   y1="193.2"
   x2="138.24"
   y2="199.13"
   id="line1199" />
<line
   class="st0"
   x1="138.79"
   y1="214.38"
   x2="122.67"
   y2="226.92"
   id="line1201" />
<line
   class="st0"
   x1="150.52"
   y1="205.25"
   x2="138.79"
   y2="214.38"
   id="line1203" />
<path
   class="st1"
   d="M243.09,218.68c-0.29,0.06-0.58,0.07-0.88,0.03"
   id="path1205" />
<path
   class="st0"
   d="M239.59,205.61c0.26-0.14,0.53-0.25,0.82-0.31c2.33-0.46,4.81,2.15,5.55,5.85s-0.55,7.07-2.88,7.53"
   id="path1207" />
<path
   class="st1"
   d="M241.77,218.63c-1.88-0.51-3.63-2.8-4.23-5.79c-0.65-3.23,0.26-6.22,2.05-7.23"
   id="path1209" />
<path
   class="st1"
   d="M242.21,218.71c-0.15-0.02-0.3-0.05-0.45-0.09"
   id="path1211" />
<line
   class="st0"
   x1="240.42"
   y1="205.3"
   x2="219.14"
   y2="221.34"
   id="line1213" />
<line
   class="st0"
   x1="244.83"
   y1="217.35"
   x2="218.8"
   y2="237.61"
   id="line1215" />
<path
   class="st0"
   d="M323.72,156.39"
   id="path1217" />
<polyline
   class="st0"
   points="413.75,250.55 413.75,269.36 323.72,269.36 323.72,168.83 "
   id="polyline1219"
   style="stroke:#00ab00;stroke-opacity:1" />
<polyline
   class="st0"
   points="323.72,156.39 323.72,138.52 413.75,138.52 413.75,239.74 "
   id="polyline1221"
   style="stroke:#00ab00;stroke-opacity:1" />
<line
   class="st0"
   x1="324.23"
   y1="168.83"
   x2="282.76"
   y2="168.83"
   id="line1223" />
<line
   class="st0"
   x1="282.76"
   y1="156.39"
   x2="324.23"
   y2="156.39"
   id="line1225" />
<line
   class="st0"
   x1="454.71"
   y1="250.55"
   x2="413.23"
   y2="250.55"
   id="line1227" />
<line
   class="st2"
   x1="454.71"
   y1="239.34"
   x2="454.71"
   y2="250.55"
   id="line1229" />
<line
   class="st0"
   x1="413.23"
   y1="239.34"
   x2="454.71"
   y2="239.34"
   id="line1231" />
<line
   class="st3"
   x1="413.75"
   y1="239.74001"
   x2="413.75"
   y2="250.55"
   id="line1233"
   style="stroke-width:1.03712" />
<line
   class="st2"
   x1="435.84"
   y1="250.08"
   x2="435.84"
   y2="240.03"
   id="line1235" />
<line
   class="st3"
   x1="323.83"
   y1="157.59"
   x2="323.83"
   y2="167.63"
   id="line1237" />
<line
   class="st2"
   x1="301.83"
   y1="167.63"
   x2="301.83"
   y2="157.59"
   id="line1239" />
<line
   class="st2"
   x1="282.76"
   y1="157.59"
   x2="282.76"
   y2="168.79"
   id="line1241" />
<g
   id="g1251">
	<g
   id="g1249">
		<line
   class="st4"
   x1="263.12"
   y1="162.61"
   x2="275.88"
   y2="162.61"
   id="line1243" />
		<g
   id="g1247">
			<path
   d="M274.98,162.61l-1.1-1.8l0.06-0.04l2.94,1.17c1.02,0.23,2.05,0.45,3.07,0.68c-1.02,0.23-2.05,0.45-3.07,0.68l-2.94,1.17     l-0.06-0.03L274.98,162.61z"
   id="path1245" />
		</g>
	</g>
</g>
<g
   id="g1265">
	<g
   id="g1263">
		<line
   class="st4"
   x1="400.1"
   y1="164.64"
   x2="430.25"
   y2="151.2"
   id="line1253" />
		<g
   id="g1257">
			<path
   d="M400.92,164.28l0.27-2.09l-0.07-0.01l-2.21,2.26c-0.84,0.62-1.69,1.24-2.53,1.87c1.03-0.21,2.05-0.42,3.08-0.63     l3.16-0.13l0.04-0.05L400.92,164.28z"
   id="path1255" />
		</g>
		<g
   id="g1261">
			<path
   d="M429.43,151.56l-1.73-1.2l0.04-0.06l3.16-0.13c1.03-0.21,2.05-0.42,3.08-0.63c-0.84,0.62-1.69,1.24-2.53,1.87l-2.21,2.26     l-0.07,0L429.43,151.56z"
   id="path1259" />
		</g>
	</g>
</g>
<g
   id="g1279">
	<g
   id="g1277">
		<line
   class="st4"
   x1="399.71"
   y1="185.05"
   x2="429.86"
   y2="171.6"
   id="line1267" />
		<g
   id="g1271">
			<path
   d="M400.53,184.68l0.27-2.09l-0.07-0.01l-2.21,2.26c-0.84,0.62-1.69,1.24-2.53,1.87c1.03-0.21,2.05-0.42,3.08-0.63     l3.16-0.13l0.04-0.05L400.53,184.68z"
   id="path1269" />
		</g>
		<g
   id="g1275">
			<path
   d="M429.04,171.97l-1.73-1.2l0.04-0.06l3.16-0.13c1.03-0.21,2.05-0.42,3.08-0.63c-0.84,0.62-1.69,1.24-2.53,1.87l-2.21,2.26     l-0.07,0L429.04,171.97z"
   id="path1273" />
		</g>
	</g>
</g>
<g
   id="g1293">
	<g
   id="g1291">
		<line
   class="st4"
   x1="304.23"
   y1="174.42"
   x2="320.93"
   y2="174.39"
   id="line1281" />
		<g
   id="g1285">
			<polygon
   points="304.56,172.17 303.14,174.42 304.57,176.68 304.58,176.68 304.57,172.17    "
   id="polygon1283" />
		</g>
		<g
   id="g1289">
			<polygon
   points="320.59,172.14 322.02,174.39 320.6,176.64 320.59,176.64 320.58,172.14    "
   id="polygon1287" />
		</g>
	</g>
</g>
<g
   id="g1303">
	<g
   id="g1301">
		<line
   class="st4"
   x1="457.36"
   y1="244.95"
   x2="470.11"
   y2="244.95"
   id="line1295" />
		<g
   id="g1299">
			<path
   d="M469.21,244.95l-1.1-1.8l0.06-0.04l2.94,1.17c1.02,0.23,2.05,0.45,3.07,0.68c-1.02,0.23-2.05,0.45-3.07,0.68l-2.94,1.17     l-0.06-0.03L469.21,244.95z"
   id="path1297" />
		</g>
	</g>
</g>
<g
   id="g1313">
	<g
   id="g1311">
		<line
   class="st4"
   x1="263.12"
   y1="197.28"
   x2="252.8"
   y2="204.76"
   id="line1305" />
		<g
   id="g1309">
			<path
   d="M253.53,204.24l1.94,0.82l-0.03,0.07l-3.06,0.78c-0.96,0.42-1.92,0.84-2.88,1.25c0.7-0.78,1.39-1.57,2.09-2.35l1.69-2.67     l0.07-0.01L253.53,204.24z"
   id="path1307" />
		</g>
	</g>
</g>
<g
   id="g1327">
	<g
   id="g1325">
		<line
   class="st4"
   x1="418.06"
   y1="255.39"
   x2="434.75"
   y2="255.36"
   id="line1315" />
		<g
   id="g1319">
			<polygon
   points="418.38,253.14 416.97,255.39 418.39,257.64 418.41,257.64 418.4,253.14    "
   id="polygon1317" />
		</g>
		<g
   id="g1323">
			<polygon
   points="434.42,253.11 435.84,255.36 434.43,257.61 434.41,257.61 434.4,253.11    "
   id="polygon1321" />
		</g>
	</g>
</g>
<g
   id="g1337">
	<g
   id="g1335">
		<line
   class="st4"
   x1="98.69"
   y1="237.02"
   x2="108.89"
   y2="229.37"
   id="line1329" />
		<g
   id="g1333">
			<path
   d="M108.17,229.91l-1.96-0.78l0.02-0.07l3.05-0.83c0.95-0.43,1.91-0.87,2.86-1.3c-0.68,0.79-1.37,1.59-2.05,2.38l-1.65,2.7     l-0.07,0.01L108.17,229.91z"
   id="path1331" />
		</g>
	</g>
</g>
<text
   xml:space="preserve"
   style="font-style:normal;font-weight:normal;font-size:16px;line-height:1.25;font-family:sans-serif;fill:#000000;fill-opacity:1;stroke:none"
   x="262.31387"
   y="151.37343"
   id="text1821"><tspan
     sodipodi:role="line"
     id="tspan1819"
     x="262.31387"
     y="151.37343"
     style="font-size:16px">$G_1$</tspan></text><text
   xml:space="preserve"
   style="font-style:normal;font-weight:normal;font-size:40px;line-height:1.25;font-family:sans-serif;fill:#000000;fill-opacity:1;stroke:none"
   x="272.65005"
   y="120.77776"
   id="text2429"><tspan
     sodipodi:role="line"
     id="tspan2427"
     x="272.65005"
     y="120.77776" /></text><text
   xml:space="preserve"
   style="font-style:normal;font-weight:normal;font-size:16px;line-height:1.25;font-family:sans-serif;fill:#000000;fill-opacity:1;stroke:none;opacity:0.99"
   x="305.21869"
   y="189.18576"
   id="text4051"><tspan
     sodipodi:role="line"
     id="tspan4049"
     x="305.21869"
     y="189.18576">$x_1$</tspan></text><text
   xml:space="preserve"
   style="font-style:normal;font-weight:normal;font-size:16px;line-height:1.25;font-family:sans-serif;fill:#000000;fill-opacity:1;stroke:none"
   x="472.19672"
   y="248.75642"
   id="text1821-5"><tspan
     sodipodi:role="line"
     id="tspan1819-8"
     x="472.19672"
     y="248.75642"
     style="font-size:16px">$G_2$</tspan></text><text
   xml:space="preserve"
   style="font-style:normal;font-weight:normal;font-size:16px;line-height:1.25;font-family:sans-serif;fill:#000000;fill-opacity:1;stroke:none"
   x="418.24911"
   y="271.58243"
   id="text4051-1"><tspan
     sodipodi:role="line"
     id="tspan4049-7"
     x="418.24911"
     y="271.58243">$x_2$</tspan></text><text
   xml:space="preserve"
   style="font-style:normal;font-weight:normal;font-size:16px;line-height:1.25;font-family:sans-serif;fill:#000000;fill-opacity:1;stroke:none"
   x="329.65277"
   y="167.74698"
   id="text4051-4"><tspan
     sodipodi:role="line"
     id="tspan4049-9"
     x="329.65277"
     y="167.74698">$p_1,S_1$</tspan></text><text
   xml:space="preserve"
   style="font-style:normal;font-weight:normal;font-size:16px;line-height:1.25;font-family:sans-serif;fill:#000000;fill-opacity:1;stroke:none"
   x="366.47174"
   y="248.73515"
   id="text4051-4-9"><tspan
     sodipodi:role="line"
     id="tspan4049-9-4"
     x="366.47174"
     y="248.73515"
     dx="0 0 0 0 0.32731101">$p_2,S_2$</tspan></text><text
   xml:space="preserve"
   style="font-style:normal;font-weight:normal;font-size:16px;line-height:1.25;font-family:sans-serif;fill:#000000;fill-opacity:1;stroke:none"
   x="364.15601"
   y="208.3707"
   id="text7194"><tspan
     sodipodi:role="line"
     id="tspan7192"
     x="364.15601"
     y="208.3707">M</tspan></text><text
   xml:space="preserve"
   style="font-style:normal;font-weight:normal;font-size:16px;line-height:1.25;font-family:sans-serif;fill:#000000;fill-opacity:1;stroke:none"
   x="433.00836"
   y="168.65829"
   id="text7194-3"><tspan
     sodipodi:role="line"
     id="tspan7192-1"
     x="433.00836"
     y="168.65829">Q</tspan></text><text
   xml:space="preserve"
   style="font-style:normal;font-weight:normal;font-size:16px;line-height:1.25;font-family:sans-serif;fill:#000000;fill-opacity:1;stroke:none"
   x="434.53192"
   y="148.22629"
   id="text7194-3-3"><tspan
     sodipodi:role="line"
     id="tspan7192-1-6"
     x="434.53192"
     y="148.22629">L</tspan></text></svg>
